  0
SECTION
  2
HEADER
  9
$ACADVER
  1
AC1009
  9
$FILLMODE
 70
 0
  9
$SPLFRAME
 70
 1
  9
$EXTMIN
 10
0
 20
0
 30
0.0
  9
$EXTMAX
 10
1058.33
 20
1058.33
 30
0.0
  0
ENDSEC
  0
SECTION
  2
TABLES
  0
TABLE
  2
LAYER
 70
1
  0
LAYER
  2
0
 70
     0
 62
     7
  6
CONTINUOUS
  0
ENDTAB
  0
ENDSEC
  0
SECTION
  2
ENTITIES
  0
LINE
  8
0
 62
     0
 10
0.0950846
 20
124.083
 30
0.0
 11
352.52
 21
124.083
 31
0.0
  0
LINE
  8
0
 62
     0
 10
352.52
 20
124.083
 30
0.0
 11
352.52
 21
0.257693
 31
0.0
  0
LINE
  8
0
 62
     0
 10
352.52
 20
0.257693
 30
0.0
 11
0.0950846
 21
0.257693
 31
0.0
  0
LINE
  8
0
 62
     0
 10
0.0950846
 20
0.257693
 30
0.0
 11
0.0950846
 21
124.083
 31
0.0
  0
LINE
  8
0
 62
     0
 10
119.301
 20
16.7831
 30
0.0
 11
119.301
 21
12.0826
 31
0.0
  0
LINE
  8
0
 62
     0
 10
119.301
 20
12.0826
 30
0.0
 11
117.776
 21
12.0826
 31
0.0
  0
LINE
  8
0
 62
     0
 10
117.776
 20
12.0826
 30
0.0
 11
117.776
 21
15.3128
 31
0.0
  0
LINE
  8
0
 62
     0
 10
117.776
 20
15.3128
 30
0.0
 11
116.05
 21
15.3128
 31
0.0
  0
LINE
  8
0
 62
     0
 10
116.05
 20
15.3128
 30
0.0
 11
116.05
 21
16.2333
 31
0.0
  0
LINE
  8
0
 62
     0
 10
116.05
 20
16.2333
 30
0.0
 11
112.751
 21
16.2333
 31
0.0
  0
LINE
  8
0
 62
     0
 10
112.751
 20
16.2333
 30
0.0
 11
112.751
 21
15.3128
 31
0.0
  0
LINE
  8
0
 62
     0
 10
112.751
 20
15.3128
 30
0.0
 11
111.026
 21
15.3128
 31
0.0
  0
LINE
  8
0
 62
     0
 10
111.026
 20
15.3128
 30
0.0
 11
111.026
 21
12.0826
 31
0.0
  0
LINE
  8
0
 62
     0
 10
111.026
 20
12.0826
 30
0.0
 11
110.2
 21
12.0826
 31
0.0
  0
LINE
  8
0
 62
     0
 10
110.2
 20
12.0826
 30
0.0
 11
110.2
 21
9.28384
 31
0.0
  0
LINE
  8
0
 62
     0
 10
110.2
 20
9.28384
 30
0.0
 11
111.026
 21
9.28384
 31
0.0
  0
LINE
  8
0
 62
     0
 10
111.026
 20
9.28384
 30
0.0
 11
111.026
 21
3.01377
 31
0.0
  0
LINE
  8
0
 62
     0
 10
111.026
 20
3.01377
 30
0.0
 11
112.751
 21
3.01377
 31
0.0
  0
LINE
  8
0
 62
     0
 10
112.751
 20
3.01377
 30
0.0
 11
112.751
 21
2.03261
 31
0.0
  0
LINE
  8
0
 62
     0
 10
112.751
 20
2.03261
 30
0.0
 11
116.05
 21
2.03261
 31
0.0
  0
LINE
  8
0
 62
     0
 10
116.05
 20
2.03261
 30
0.0
 11
116.05
 21
3.01377
 31
0.0
  0
LINE
  8
0
 62
     0
 10
116.05
 20
3.01377
 30
0.0
 11
117.776
 21
3.01377
 31
0.0
  0
LINE
  8
0
 62
     0
 10
117.776
 20
3.01377
 30
0.0
 11
117.776
 21
7.48273
 31
0.0
  0
LINE
  8
0
 62
     0
 10
117.776
 20
7.48273
 30
0.0
 11
119.301
 21
7.48273
 31
0.0
  0
LINE
  8
0
 62
     0
 10
119.301
 20
7.48273
 30
0.0
 11
119.301
 21
2.78364
 31
0.0
  0
LINE
  8
0
 62
     0
 10
119.301
 20
2.78364
 30
0.0
 11
133.3
 21
2.78364
 31
0.0
  0
LINE
  8
0
 62
     0
 10
133.3
 20
2.78364
 30
0.0
 11
133.3
 21
7.48273
 31
0.0
  0
LINE
  8
0
 62
     0
 10
133.3
 20
7.48273
 30
0.0
 11
134.826
 21
7.48273
 31
0.0
  0
LINE
  8
0
 62
     0
 10
134.826
 20
7.48273
 30
0.0
 11
134.826
 21
3.01377
 31
0.0
  0
LINE
  8
0
 62
     0
 10
134.826
 20
3.01377
 30
0.0
 11
136.55
 21
3.01377
 31
0.0
  0
LINE
  8
0
 62
     0
 10
136.55
 20
3.01377
 30
0.0
 11
136.55
 21
2.03261
 31
0.0
  0
LINE
  8
0
 62
     0
 10
136.55
 20
2.03261
 30
0.0
 11
139.85
 21
2.03261
 31
0.0
  0
LINE
  8
0
 62
     0
 10
139.85
 20
2.03261
 30
0.0
 11
139.85
 21
3.01377
 31
0.0
  0
LINE
  8
0
 62
     0
 10
139.85
 20
3.01377
 30
0.0
 11
141.575
 21
3.01377
 31
0.0
  0
LINE
  8
0
 62
     0
 10
141.575
 20
3.01377
 30
0.0
 11
141.575
 21
9.28384
 31
0.0
  0
LINE
  8
0
 62
     0
 10
141.575
 20
9.28384
 30
0.0
 11
142.401
 21
9.28384
 31
0.0
  0
LINE
  8
0
 62
     0
 10
142.401
 20
9.28384
 30
0.0
 11
142.401
 21
12.0826
 31
0.0
  0
LINE
  8
0
 62
     0
 10
142.401
 20
12.0826
 30
0.0
 11
141.575
 21
12.0826
 31
0.0
  0
LINE
  8
0
 62
     0
 10
141.575
 20
12.0826
 30
0.0
 11
141.575
 21
15.3128
 31
0.0
  0
LINE
  8
0
 62
     0
 10
141.575
 20
15.3128
 30
0.0
 11
139.85
 21
15.3128
 31
0.0
  0
LINE
  8
0
 62
     0
 10
139.85
 20
15.3128
 30
0.0
 11
139.85
 21
16.2333
 31
0.0
  0
LINE
  8
0
 62
     0
 10
139.85
 20
16.2333
 30
0.0
 11
136.55
 21
16.2333
 31
0.0
  0
LINE
  8
0
 62
     0
 10
136.55
 20
16.2333
 30
0.0
 11
136.55
 21
15.3128
 31
0.0
  0
LINE
  8
0
 62
     0
 10
136.55
 20
15.3128
 30
0.0
 11
134.826
 21
15.3128
 31
0.0
  0
LINE
  8
0
 62
     0
 10
134.826
 20
15.3128
 30
0.0
 11
134.826
 21
12.0826
 31
0.0
  0
LINE
  8
0
 62
     0
 10
134.826
 20
12.0826
 30
0.0
 11
133.3
 21
12.0826
 31
0.0
  0
LINE
  8
0
 62
     0
 10
133.3
 20
12.0826
 30
0.0
 11
133.3
 21
16.7831
 31
0.0
  0
LINE
  8
0
 62
     0
 10
133.3
 20
16.7831
 30
0.0
 11
119.301
 21
16.7831
 31
0.0
  0
LINE
  8
0
 62
     0
 10
7.38216
 20
16.7831
 30
0.0
 11
21.3817
 21
16.7831
 31
0.0
  0
LINE
  8
0
 62
     0
 10
21.3817
 20
16.7831
 30
0.0
 11
21.3817
 21
2.78364
 31
0.0
  0
LINE
  8
0
 62
     0
 10
21.3817
 20
2.78364
 30
0.0
 11
7.38216
 21
2.78364
 31
0.0
  0
LINE
  8
0
 62
     0
 10
7.38216
 20
2.78364
 30
0.0
 11
7.38216
 21
16.7831
 31
0.0
  0
LINE
  8
0
 62
     0
 10
55.0072
 20
16.7831
 30
0.0
 11
69.0065
 21
16.7831
 31
0.0
  0
LINE
  8
0
 62
     0
 10
69.0065
 20
16.7831
 30
0.0
 11
69.0065
 21
2.78364
 31
0.0
  0
LINE
  8
0
 62
     0
 10
69.0065
 20
2.78364
 30
0.0
 11
55.0072
 21
2.78364
 31
0.0
  0
LINE
  8
0
 62
     0
 10
55.0072
 20
2.78364
 30
0.0
 11
55.0072
 21
16.7831
 31
0.0
  0
LINE
  8
0
 62
     0
 10
83.5822
 20
16.7831
 30
0.0
 11
97.5815
 21
16.7831
 31
0.0
  0
LINE
  8
0
 62
     0
 10
97.5815
 20
16.7831
 30
0.0
 11
97.5815
 21
2.78364
 31
0.0
  0
LINE
  8
0
 62
     0
 10
97.5815
 20
2.78364
 30
0.0
 11
83.5822
 21
2.78364
 31
0.0
  0
LINE
  8
0
 62
     0
 10
83.5822
 20
2.78364
 30
0.0
 11
83.5822
 21
16.7831
 31
0.0
  0
LINE
  8
0
 62
     0
 10
155.02
 20
16.7831
 30
0.0
 11
169.019
 21
16.7831
 31
0.0
  0
LINE
  8
0
 62
     0
 10
169.019
 20
16.7831
 30
0.0
 11
169.019
 21
2.78364
 31
0.0
  0
LINE
  8
0
 62
     0
 10
169.019
 20
2.78364
 30
0.0
 11
155.02
 21
2.78364
 31
0.0
  0
LINE
  8
0
 62
     0
 10
155.02
 20
2.78364
 30
0.0
 11
155.02
 21
16.7831
 31
0.0
  0
LINE
  8
0
 62
     0
 10
183.595
 20
16.7831
 30
0.0
 11
197.594
 21
16.7831
 31
0.0
  0
LINE
  8
0
 62
     0
 10
197.594
 20
16.7831
 30
0.0
 11
197.594
 21
2.78364
 31
0.0
  0
LINE
  8
0
 62
     0
 10
197.594
 20
2.78364
 30
0.0
 11
183.595
 21
2.78364
 31
0.0
  0
LINE
  8
0
 62
     0
 10
183.595
 20
2.78364
 30
0.0
 11
183.595
 21
16.7831
 31
0.0
  0
LINE
  8
0
 62
     0
 10
212.17
 20
16.7831
 30
0.0
 11
226.169
 21
16.7831
 31
0.0
  0
LINE
  8
0
 62
     0
 10
226.169
 20
16.7831
 30
0.0
 11
226.169
 21
2.78364
 31
0.0
  0
LINE
  8
0
 62
     0
 10
226.169
 20
2.78364
 30
0.0
 11
212.17
 21
2.78364
 31
0.0
  0
LINE
  8
0
 62
     0
 10
212.17
 20
2.78364
 30
0.0
 11
212.17
 21
16.7831
 31
0.0
  0
LINE
  8
0
 62
     0
 10
262.176
 20
16.7831
 30
0.0
 11
276.175
 21
16.7831
 31
0.0
  0
LINE
  8
0
 62
     0
 10
276.175
 20
16.7831
 30
0.0
 11
276.175
 21
2.78364
 31
0.0
  0
LINE
  8
0
 62
     0
 10
276.175
 20
2.78364
 30
0.0
 11
262.176
 21
2.78364
 31
0.0
  0
LINE
  8
0
 62
     0
 10
262.176
 20
2.78364
 30
0.0
 11
262.176
 21
16.7831
 31
0.0
  0
LINE
  8
0
 62
     0
 10
297.895
 20
16.7831
 30
0.0
 11
311.894
 21
16.7831
 31
0.0
  0
LINE
  8
0
 62
     0
 10
311.894
 20
16.7831
 30
0.0
 11
311.894
 21
2.78364
 31
0.0
  0
LINE
  8
0
 62
     0
 10
311.894
 20
2.78364
 30
0.0
 11
297.895
 21
2.78364
 31
0.0
  0
LINE
  8
0
 62
     0
 10
297.895
 20
2.78364
 30
0.0
 11
297.895
 21
16.7831
 31
0.0
  0
LINE
  8
0
 62
     0
 10
316.945
 20
16.7831
 30
0.0
 11
330.944
 21
16.7831
 31
0.0
  0
LINE
  8
0
 62
     0
 10
330.944
 20
16.7831
 30
0.0
 11
330.944
 21
2.78364
 31
0.0
  0
LINE
  8
0
 62
     0
 10
330.944
 20
2.78364
 30
0.0
 11
316.945
 21
2.78364
 31
0.0
  0
LINE
  8
0
 62
     0
 10
316.945
 20
2.78364
 30
0.0
 11
316.945
 21
16.7831
 31
0.0
  0
LINE
  8
0
 62
     0
 10
335.995
 20
16.7831
 30
0.0
 11
349.994
 21
16.7831
 31
0.0
  0
LINE
  8
0
 62
     0
 10
349.994
 20
16.7831
 30
0.0
 11
349.994
 21
2.78364
 31
0.0
  0
LINE
  8
0
 62
     0
 10
349.994
 20
2.78364
 30
0.0
 11
335.995
 21
2.78364
 31
0.0
  0
LINE
  8
0
 62
     0
 10
335.995
 20
2.78364
 30
0.0
 11
335.995
 21
16.7831
 31
0.0
  0
LINE
  8
0
 62
     0
 10
12.1447
 20
35.833
 30
0.0
 11
12.1447
 21
31.1326
 31
0.0
  0
LINE
  8
0
 62
     0
 10
12.1447
 20
31.1326
 30
0.0
 11
10.6192
 21
31.1326
 31
0.0
  0
LINE
  8
0
 62
     0
 10
10.6192
 20
31.1326
 30
0.0
 11
10.6192
 21
34.3628
 31
0.0
  0
LINE
  8
0
 62
     0
 10
10.6192
 20
34.3628
 30
0.0
 11
8.89385
 21
34.3628
 31
0.0
  0
LINE
  8
0
 62
     0
 10
8.89385
 20
34.3628
 30
0.0
 11
8.89385
 21
35.2834
 31
0.0
  0
LINE
  8
0
 62
     0
 10
8.89385
 20
35.2834
 30
0.0
 11
5.59484
 21
35.2834
 31
0.0
  0
LINE
  8
0
 62
     0
 10
5.59484
 20
35.2834
 30
0.0
 11
5.59484
 21
34.3628
 31
0.0
  0
LINE
  8
0
 62
     0
 10
5.59484
 20
34.3628
 30
0.0
 11
3.86955
 21
34.3628
 31
0.0
  0
LINE
  8
0
 62
     0
 10
3.86955
 20
34.3628
 30
0.0
 11
3.86955
 21
31.1326
 31
0.0
  0
LINE
  8
0
 62
     0
 10
3.86955
 20
31.1326
 30
0.0
 11
3.04409
 21
31.1326
 31
0.0
  0
LINE
  8
0
 62
     0
 10
3.04409
 20
31.1326
 30
0.0
 11
3.04409
 21
28.3338
 31
0.0
  0
LINE
  8
0
 62
     0
 10
3.04409
 20
28.3338
 30
0.0
 11
3.86955
 21
28.3338
 31
0.0
  0
LINE
  8
0
 62
     0
 10
3.86955
 20
28.3338
 30
0.0
 11
3.86955
 21
22.0638
 31
0.0
  0
LINE
  8
0
 62
     0
 10
3.86955
 20
22.0638
 30
0.0
 11
5.59484
 21
22.0638
 31
0.0
  0
LINE
  8
0
 62
     0
 10
5.59484
 20
22.0638
 30
0.0
 11
5.59484
 21
21.0826
 31
0.0
  0
LINE
  8
0
 62
     0
 10
5.59484
 20
21.0826
 30
0.0
 11
8.89385
 21
21.0826
 31
0.0
  0
LINE
  8
0
 62
     0
 10
8.89385
 20
21.0826
 30
0.0
 11
8.89385
 21
22.0638
 31
0.0
  0
LINE
  8
0
 62
     0
 10
8.89385
 20
22.0638
 30
0.0
 11
10.6192
 21
22.0638
 31
0.0
  0
LINE
  8
0
 62
     0
 10
10.6192
 20
22.0638
 30
0.0
 11
10.6192
 21
26.5327
 31
0.0
  0
LINE
  8
0
 62
     0
 10
10.6192
 20
26.5327
 30
0.0
 11
12.1447
 21
26.5327
 31
0.0
  0
LINE
  8
0
 62
     0
 10
12.1447
 20
26.5327
 30
0.0
 11
12.1447
 21
21.8336
 31
0.0
  0
LINE
  8
0
 62
     0
 10
12.1447
 20
21.8336
 30
0.0
 11
26.1441
 21
21.8336
 31
0.0
  0
LINE
  8
0
 62
     0
 10
26.1441
 20
21.8336
 30
0.0
 11
26.1441
 21
26.5327
 31
0.0
  0
LINE
  8
0
 62
     0
 10
26.1441
 20
26.5327
 30
0.0
 11
27.6696
 21
26.5327
 31
0.0
  0
LINE
  8
0
 62
     0
 10
27.6696
 20
26.5327
 30
0.0
 11
27.6696
 21
22.0638
 31
0.0
  0
LINE
  8
0
 62
     0
 10
27.6696
 20
22.0638
 30
0.0
 11
29.3949
 21
22.0638
 31
0.0
  0
LINE
  8
0
 62
     0
 10
29.3949
 20
22.0638
 30
0.0
 11
29.3949
 21
21.0826
 31
0.0
  0
LINE
  8
0
 62
     0
 10
29.3949
 20
21.0826
 30
0.0
 11
32.694
 21
21.0826
 31
0.0
  0
LINE
  8
0
 62
     0
 10
32.694
 20
21.0826
 30
0.0
 11
32.694
 21
22.0638
 31
0.0
  0
LINE
  8
0
 62
     0
 10
32.694
 20
22.0638
 30
0.0
 11
34.4193
 21
22.0638
 31
0.0
  0
LINE
  8
0
 62
     0
 10
34.4193
 20
22.0638
 30
0.0
 11
34.4193
 21
28.3338
 31
0.0
  0
LINE
  8
0
 62
     0
 10
34.4193
 20
28.3338
 30
0.0
 11
35.2447
 21
28.3338
 31
0.0
  0
LINE
  8
0
 62
     0
 10
35.2447
 20
28.3338
 30
0.0
 11
35.2447
 21
31.1326
 31
0.0
  0
LINE
  8
0
 62
     0
 10
35.2447
 20
31.1326
 30
0.0
 11
34.4193
 21
31.1326
 31
0.0
  0
LINE
  8
0
 62
     0
 10
34.4193
 20
31.1326
 30
0.0
 11
34.4193
 21
34.3628
 31
0.0
  0
LINE
  8
0
 62
     0
 10
34.4193
 20
34.3628
 30
0.0
 11
32.694
 21
34.3628
 31
0.0
  0
LINE
  8
0
 62
     0
 10
32.694
 20
34.3628
 30
0.0
 11
32.694
 21
35.2834
 31
0.0
  0
LINE
  8
0
 62
     0
 10
32.694
 20
35.2834
 30
0.0
 11
29.3949
 21
35.2834
 31
0.0
  0
LINE
  8
0
 62
     0
 10
29.3949
 20
35.2834
 30
0.0
 11
29.3949
 21
34.3628
 31
0.0
  0
LINE
  8
0
 62
     0
 10
29.3949
 20
34.3628
 30
0.0
 11
27.6696
 21
34.3628
 31
0.0
  0
LINE
  8
0
 62
     0
 10
27.6696
 20
34.3628
 30
0.0
 11
27.6696
 21
31.1326
 31
0.0
  0
LINE
  8
0
 62
     0
 10
27.6696
 20
31.1326
 30
0.0
 11
26.1441
 21
31.1326
 31
0.0
  0
LINE
  8
0
 62
     0
 10
26.1441
 20
31.1326
 30
0.0
 11
26.1441
 21
35.833
 31
0.0
  0
LINE
  8
0
 62
     0
 10
26.1441
 20
35.833
 30
0.0
 11
12.1447
 21
35.833
 31
0.0
  0
LINE
  8
0
 62
     0
 10
259.795
 20
35.833
 30
0.0
 11
259.795
 21
31.1326
 31
0.0
  0
LINE
  8
0
 62
     0
 10
259.795
 20
31.1326
 30
0.0
 11
258.269
 21
31.1326
 31
0.0
  0
LINE
  8
0
 62
     0
 10
258.269
 20
31.1326
 30
0.0
 11
258.269
 21
34.3628
 31
0.0
  0
LINE
  8
0
 62
     0
 10
258.269
 20
34.3628
 30
0.0
 11
256.544
 21
34.3628
 31
0.0
  0
LINE
  8
0
 62
     0
 10
256.544
 20
34.3628
 30
0.0
 11
256.544
 21
35.2834
 31
0.0
  0
LINE
  8
0
 62
     0
 10
256.544
 20
35.2834
 30
0.0
 11
253.243
 21
35.2834
 31
0.0
  0
LINE
  8
0
 62
     0
 10
253.243
 20
35.2834
 30
0.0
 11
253.243
 21
34.3628
 31
0.0
  0
LINE
  8
0
 62
     0
 10
253.243
 20
34.3628
 30
0.0
 11
251.52
 21
34.3628
 31
0.0
  0
LINE
  8
0
 62
     0
 10
251.52
 20
34.3628
 30
0.0
 11
251.52
 21
31.1326
 31
0.0
  0
LINE
  8
0
 62
     0
 10
251.52
 20
31.1326
 30
0.0
 11
250.694
 21
31.1326
 31
0.0
  0
LINE
  8
0
 62
     0
 10
250.694
 20
31.1326
 30
0.0
 11
250.694
 21
28.3338
 31
0.0
  0
LINE
  8
0
 62
     0
 10
250.694
 20
28.3338
 30
0.0
 11
251.52
 21
28.3338
 31
0.0
  0
LINE
  8
0
 62
     0
 10
251.52
 20
28.3338
 30
0.0
 11
251.52
 21
22.0638
 31
0.0
  0
LINE
  8
0
 62
     0
 10
251.52
 20
22.0638
 30
0.0
 11
253.243
 21
22.0638
 31
0.0
  0
LINE
  8
0
 62
     0
 10
253.243
 20
22.0638
 30
0.0
 11
253.243
 21
21.0826
 31
0.0
  0
LINE
  8
0
 62
     0
 10
253.243
 20
21.0826
 30
0.0
 11
256.544
 21
21.0826
 31
0.0
  0
LINE
  8
0
 62
     0
 10
256.544
 20
21.0826
 30
0.0
 11
256.544
 21
22.0638
 31
0.0
  0
LINE
  8
0
 62
     0
 10
256.544
 20
22.0638
 30
0.0
 11
258.269
 21
22.0638
 31
0.0
  0
LINE
  8
0
 62
     0
 10
258.269
 20
22.0638
 30
0.0
 11
258.269
 21
26.5327
 31
0.0
  0
LINE
  8
0
 62
     0
 10
258.269
 20
26.5327
 30
0.0
 11
259.795
 21
26.5327
 31
0.0
  0
LINE
  8
0
 62
     0
 10
259.795
 20
26.5327
 30
0.0
 11
259.795
 21
21.8336
 31
0.0
  0
LINE
  8
0
 62
     0
 10
259.795
 20
21.8336
 30
0.0
 11
273.794
 21
21.8336
 31
0.0
  0
LINE
  8
0
 62
     0
 10
273.794
 20
21.8336
 30
0.0
 11
273.794
 21
26.5327
 31
0.0
  0
LINE
  8
0
 62
     0
 10
273.794
 20
26.5327
 30
0.0
 11
275.32
 21
26.5327
 31
0.0
  0
LINE
  8
0
 62
     0
 10
275.32
 20
26.5327
 30
0.0
 11
275.32
 21
22.0638
 31
0.0
  0
LINE
  8
0
 62
     0
 10
275.32
 20
22.0638
 30
0.0
 11
277.045
 21
22.0638
 31
0.0
  0
LINE
  8
0
 62
     0
 10
277.045
 20
22.0638
 30
0.0
 11
277.045
 21
21.0826
 31
0.0
  0
LINE
  8
0
 62
     0
 10
277.045
 20
21.0826
 30
0.0
 11
280.344
 21
21.0826
 31
0.0
  0
LINE
  8
0
 62
     0
 10
280.344
 20
21.0826
 30
0.0
 11
280.344
 21
22.0638
 31
0.0
  0
LINE
  8
0
 62
     0
 10
280.344
 20
22.0638
 30
0.0
 11
282.069
 21
22.0638
 31
0.0
  0
LINE
  8
0
 62
     0
 10
282.069
 20
22.0638
 30
0.0
 11
282.069
 21
28.3338
 31
0.0
  0
LINE
  8
0
 62
     0
 10
282.069
 20
28.3338
 30
0.0
 11
282.895
 21
28.3338
 31
0.0
  0
LINE
  8
0
 62
     0
 10
282.895
 20
28.3338
 30
0.0
 11
282.895
 21
31.1326
 31
0.0
  0
LINE
  8
0
 62
     0
 10
282.895
 20
31.1326
 30
0.0
 11
282.069
 21
31.1326
 31
0.0
  0
LINE
  8
0
 62
     0
 10
282.069
 20
31.1326
 30
0.0
 11
282.069
 21
34.3628
 31
0.0
  0
LINE
  8
0
 62
     0
 10
282.069
 20
34.3628
 30
0.0
 11
280.344
 21
34.3628
 31
0.0
  0
LINE
  8
0
 62
     0
 10
280.344
 20
34.3628
 30
0.0
 11
280.344
 21
35.2834
 31
0.0
  0
LINE
  8
0
 62
     0
 10
280.344
 20
35.2834
 30
0.0
 11
277.045
 21
35.2834
 31
0.0
  0
LINE
  8
0
 62
     0
 10
277.045
 20
35.2834
 30
0.0
 11
277.045
 21
34.3628
 31
0.0
  0
LINE
  8
0
 62
     0
 10
277.045
 20
34.3628
 30
0.0
 11
275.32
 21
34.3628
 31
0.0
  0
LINE
  8
0
 62
     0
 10
275.32
 20
34.3628
 30
0.0
 11
275.32
 21
31.1326
 31
0.0
  0
LINE
  8
0
 62
     0
 10
275.32
 20
31.1326
 30
0.0
 11
273.794
 21
31.1326
 31
0.0
  0
LINE
  8
0
 62
     0
 10
273.794
 20
31.1326
 30
0.0
 11
273.794
 21
35.833
 31
0.0
  0
LINE
  8
0
 62
     0
 10
273.794
 20
35.833
 30
0.0
 11
259.795
 21
35.833
 31
0.0
  0
LINE
  8
0
 62
     0
 10
40.7197
 20
35.833
 30
0.0
 11
54.719
 21
35.833
 31
0.0
  0
LINE
  8
0
 62
     0
 10
54.719
 20
35.833
 30
0.0
 11
54.719
 21
21.8336
 31
0.0
  0
LINE
  8
0
 62
     0
 10
54.719
 20
21.8336
 30
0.0
 11
40.7197
 21
21.8336
 31
0.0
  0
LINE
  8
0
 62
     0
 10
40.7197
 20
21.8336
 30
0.0
 11
40.7197
 21
35.833
 31
0.0
  0
LINE
  8
0
 62
     0
 10
59.7697
 20
35.833
 30
0.0
 11
73.769
 21
35.833
 31
0.0
  0
LINE
  8
0
 62
     0
 10
73.769
 20
35.833
 30
0.0
 11
73.769
 21
21.8336
 31
0.0
  0
LINE
  8
0
 62
     0
 10
73.769
 20
21.8336
 30
0.0
 11
59.7697
 21
21.8336
 31
0.0
  0
LINE
  8
0
 62
     0
 10
59.7697
 20
21.8336
 30
0.0
 11
59.7697
 21
35.833
 31
0.0
  0
LINE
  8
0
 62
     0
 10
78.8197
 20
35.833
 30
0.0
 11
92.819
 21
35.833
 31
0.0
  0
LINE
  8
0
 62
     0
 10
92.819
 20
35.833
 30
0.0
 11
92.819
 21
21.8336
 31
0.0
  0
LINE
  8
0
 62
     0
 10
92.819
 20
21.8336
 30
0.0
 11
78.8197
 21
21.8336
 31
0.0
  0
LINE
  8
0
 62
     0
 10
78.8197
 20
21.8336
 30
0.0
 11
78.8197
 21
35.833
 31
0.0
  0
LINE
  8
0
 62
     0
 10
97.8683
 20
35.833
 30
0.0
 11
111.869
 21
35.833
 31
0.0
  0
LINE
  8
0
 62
     0
 10
111.869
 20
35.833
 30
0.0
 11
111.869
 21
21.8336
 31
0.0
  0
LINE
  8
0
 62
     0
 10
111.869
 20
21.8336
 30
0.0
 11
97.8683
 21
21.8336
 31
0.0
  0
LINE
  8
0
 62
     0
 10
97.8683
 20
21.8336
 30
0.0
 11
97.8683
 21
35.833
 31
0.0
  0
LINE
  8
0
 62
     0
 10
116.918
 20
35.833
 30
0.0
 11
130.919
 21
35.833
 31
0.0
  0
LINE
  8
0
 62
     0
 10
130.919
 20
35.833
 30
0.0
 11
130.919
 21
21.8336
 31
0.0
  0
LINE
  8
0
 62
     0
 10
130.919
 20
21.8336
 30
0.0
 11
116.918
 21
21.8336
 31
0.0
  0
LINE
  8
0
 62
     0
 10
116.918
 20
21.8336
 30
0.0
 11
116.918
 21
35.833
 31
0.0
  0
LINE
  8
0
 62
     0
 10
135.97
 20
35.833
 30
0.0
 11
149.969
 21
35.833
 31
0.0
  0
LINE
  8
0
 62
     0
 10
149.969
 20
35.833
 30
0.0
 11
149.969
 21
21.8336
 31
0.0
  0
LINE
  8
0
 62
     0
 10
149.969
 20
21.8336
 30
0.0
 11
135.97
 21
21.8336
 31
0.0
  0
LINE
  8
0
 62
     0
 10
135.97
 20
21.8336
 30
0.0
 11
135.97
 21
35.833
 31
0.0
  0
LINE
  8
0
 62
     0
 10
155.02
 20
35.833
 30
0.0
 11
169.019
 21
35.833
 31
0.0
  0
LINE
  8
0
 62
     0
 10
169.019
 20
35.833
 30
0.0
 11
169.019
 21
21.8336
 31
0.0
  0
LINE
  8
0
 62
     0
 10
169.019
 20
21.8336
 30
0.0
 11
155.02
 21
21.8336
 31
0.0
  0
LINE
  8
0
 62
     0
 10
155.02
 20
21.8336
 30
0.0
 11
155.02
 21
35.833
 31
0.0
  0
LINE
  8
0
 62
     0
 10
174.07
 20
35.833
 30
0.0
 11
188.069
 21
35.833
 31
0.0
  0
LINE
  8
0
 62
     0
 10
188.069
 20
35.833
 30
0.0
 11
188.069
 21
21.8336
 31
0.0
  0
LINE
  8
0
 62
     0
 10
188.069
 20
21.8336
 30
0.0
 11
174.07
 21
21.8336
 31
0.0
  0
LINE
  8
0
 62
     0
 10
174.07
 20
21.8336
 30
0.0
 11
174.07
 21
35.833
 31
0.0
  0
LINE
  8
0
 62
     0
 10
193.12
 20
35.833
 30
0.0
 11
207.119
 21
35.833
 31
0.0
  0
LINE
  8
0
 62
     0
 10
207.119
 20
35.833
 30
0.0
 11
207.119
 21
21.8336
 31
0.0
  0
LINE
  8
0
 62
     0
 10
207.119
 20
21.8336
 30
0.0
 11
193.12
 21
21.8336
 31
0.0
  0
LINE
  8
0
 62
     0
 10
193.12
 20
21.8336
 30
0.0
 11
193.12
 21
35.833
 31
0.0
  0
LINE
  8
0
 62
     0
 10
212.17
 20
35.833
 30
0.0
 11
226.169
 21
35.833
 31
0.0
  0
LINE
  8
0
 62
     0
 10
226.169
 20
35.833
 30
0.0
 11
226.169
 21
21.8336
 31
0.0
  0
LINE
  8
0
 62
     0
 10
226.169
 20
21.8336
 30
0.0
 11
212.17
 21
21.8336
 31
0.0
  0
LINE
  8
0
 62
     0
 10
212.17
 20
21.8336
 30
0.0
 11
212.17
 21
35.833
 31
0.0
  0
LINE
  8
0
 62
     0
 10
231.22
 20
35.833
 30
0.0
 11
245.219
 21
35.833
 31
0.0
  0
LINE
  8
0
 62
     0
 10
245.219
 20
35.833
 30
0.0
 11
245.219
 21
21.8336
 31
0.0
  0
LINE
  8
0
 62
     0
 10
245.219
 20
21.8336
 30
0.0
 11
231.22
 21
21.8336
 31
0.0
  0
LINE
  8
0
 62
     0
 10
231.22
 20
21.8336
 30
0.0
 11
231.22
 21
35.833
 31
0.0
  0
LINE
  8
0
 62
     0
 10
316.945
 20
35.833
 30
0.0
 11
330.944
 21
35.833
 31
0.0
  0
LINE
  8
0
 62
     0
 10
330.944
 20
35.833
 30
0.0
 11
330.944
 21
21.8336
 31
0.0
  0
LINE
  8
0
 62
     0
 10
330.944
 20
21.8336
 30
0.0
 11
316.945
 21
21.8336
 31
0.0
  0
LINE
  8
0
 62
     0
 10
316.945
 20
21.8336
 30
0.0
 11
316.945
 21
35.833
 31
0.0
  0
LINE
  8
0
 62
     0
 10
9.76203
 20
54.8831
 30
0.0
 11
23.7629
 21
54.8831
 31
0.0
  0
LINE
  8
0
 62
     0
 10
23.7629
 20
54.8831
 30
0.0
 11
23.7629
 21
40.8838
 31
0.0
  0
LINE
  8
0
 62
     0
 10
23.7629
 20
40.8838
 30
0.0
 11
9.76203
 21
40.8838
 31
0.0
  0
LINE
  8
0
 62
     0
 10
9.76203
 20
40.8838
 30
0.0
 11
9.76203
 21
54.8831
 31
0.0
  0
LINE
  8
0
 62
     0
 10
35.9572
 20
54.8831
 30
0.0
 11
49.9565
 21
54.8831
 31
0.0
  0
LINE
  8
0
 62
     0
 10
49.9565
 20
54.8831
 30
0.0
 11
49.9565
 21
40.8838
 31
0.0
  0
LINE
  8
0
 62
     0
 10
49.9565
 20
40.8838
 30
0.0
 11
35.9572
 21
40.8838
 31
0.0
  0
LINE
  8
0
 62
     0
 10
35.9572
 20
40.8838
 30
0.0
 11
35.9572
 21
54.8831
 31
0.0
  0
LINE
  8
0
 62
     0
 10
55.0072
 20
54.8831
 30
0.0
 11
69.0065
 21
54.8831
 31
0.0
  0
LINE
  8
0
 62
     0
 10
69.0065
 20
54.8831
 30
0.0
 11
69.0065
 21
40.8838
 31
0.0
  0
LINE
  8
0
 62
     0
 10
69.0065
 20
40.8838
 30
0.0
 11
55.0072
 21
40.8838
 31
0.0
  0
LINE
  8
0
 62
     0
 10
55.0072
 20
40.8838
 30
0.0
 11
55.0072
 21
54.8831
 31
0.0
  0
LINE
  8
0
 62
     0
 10
74.0572
 20
54.8831
 30
0.0
 11
88.0565
 21
54.8831
 31
0.0
  0
LINE
  8
0
 62
     0
 10
88.0565
 20
54.8831
 30
0.0
 11
88.0565
 21
40.8838
 31
0.0
  0
LINE
  8
0
 62
     0
 10
88.0565
 20
40.8838
 30
0.0
 11
74.0572
 21
40.8838
 31
0.0
  0
LINE
  8
0
 62
     0
 10
74.0572
 20
40.8838
 30
0.0
 11
74.0572
 21
54.8831
 31
0.0
  0
LINE
  8
0
 62
     0
 10
93.1072
 20
54.8831
 30
0.0
 11
107.107
 21
54.8831
 31
0.0
  0
LINE
  8
0
 62
     0
 10
107.107
 20
54.8831
 30
0.0
 11
107.107
 21
40.8838
 31
0.0
  0
LINE
  8
0
 62
     0
 10
107.107
 20
40.8838
 30
0.0
 11
93.1072
 21
40.8838
 31
0.0
  0
LINE
  8
0
 62
     0
 10
93.1072
 20
40.8838
 30
0.0
 11
93.1072
 21
54.8831
 31
0.0
  0
LINE
  8
0
 62
     0
 10
112.157
 20
54.8831
 30
0.0
 11
126.157
 21
54.8831
 31
0.0
  0
LINE
  8
0
 62
     0
 10
126.157
 20
54.8831
 30
0.0
 11
126.157
 21
40.8838
 31
0.0
  0
LINE
  8
0
 62
     0
 10
126.157
 20
40.8838
 30
0.0
 11
112.157
 21
40.8838
 31
0.0
  0
LINE
  8
0
 62
     0
 10
112.157
 20
40.8838
 30
0.0
 11
112.157
 21
54.8831
 31
0.0
  0
LINE
  8
0
 62
     0
 10
131.207
 20
54.8831
 30
0.0
 11
145.207
 21
54.8831
 31
0.0
  0
LINE
  8
0
 62
     0
 10
145.207
 20
54.8831
 30
0.0
 11
145.207
 21
40.8838
 31
0.0
  0
LINE
  8
0
 62
     0
 10
145.207
 20
40.8838
 30
0.0
 11
131.207
 21
40.8838
 31
0.0
  0
LINE
  8
0
 62
     0
 10
131.207
 20
40.8838
 30
0.0
 11
131.207
 21
54.8831
 31
0.0
  0
LINE
  8
0
 62
     0
 10
150.257
 20
54.8831
 30
0.0
 11
164.257
 21
54.8831
 31
0.0
  0
LINE
  8
0
 62
     0
 10
164.257
 20
54.8831
 30
0.0
 11
164.257
 21
40.8838
 31
0.0
  0
LINE
  8
0
 62
     0
 10
164.257
 20
40.8838
 30
0.0
 11
150.257
 21
40.8838
 31
0.0
  0
LINE
  8
0
 62
     0
 10
150.257
 20
40.8838
 30
0.0
 11
150.257
 21
54.8831
 31
0.0
  0
LINE
  8
0
 62
     0
 10
169.307
 20
54.8831
 30
0.0
 11
183.307
 21
54.8831
 31
0.0
  0
LINE
  8
0
 62
     0
 10
183.307
 20
54.8831
 30
0.0
 11
183.307
 21
40.8838
 31
0.0
  0
LINE
  8
0
 62
     0
 10
183.307
 20
40.8838
 30
0.0
 11
169.307
 21
40.8838
 31
0.0
  0
LINE
  8
0
 62
     0
 10
169.307
 20
40.8838
 30
0.0
 11
169.307
 21
54.8831
 31
0.0
  0
LINE
  8
0
 62
     0
 10
188.357
 20
54.8831
 30
0.0
 11
202.357
 21
54.8831
 31
0.0
  0
LINE
  8
0
 62
     0
 10
202.357
 20
54.8831
 30
0.0
 11
202.357
 21
40.8838
 31
0.0
  0
LINE
  8
0
 62
     0
 10
202.357
 20
40.8838
 30
0.0
 11
188.357
 21
40.8838
 31
0.0
  0
LINE
  8
0
 62
     0
 10
188.357
 20
40.8838
 30
0.0
 11
188.357
 21
54.8831
 31
0.0
  0
LINE
  8
0
 62
     0
 10
207.407
 20
54.8831
 30
0.0
 11
221.407
 21
54.8831
 31
0.0
  0
LINE
  8
0
 62
     0
 10
221.407
 20
54.8831
 30
0.0
 11
221.407
 21
40.8838
 31
0.0
  0
LINE
  8
0
 62
     0
 10
221.407
 20
40.8838
 30
0.0
 11
207.407
 21
40.8838
 31
0.0
  0
LINE
  8
0
 62
     0
 10
207.407
 20
40.8838
 30
0.0
 11
207.407
 21
54.8831
 31
0.0
  0
LINE
  8
0
 62
     0
 10
226.457
 20
54.8831
 30
0.0
 11
240.457
 21
54.8831
 31
0.0
  0
LINE
  8
0
 62
     0
 10
240.457
 20
54.8831
 30
0.0
 11
240.457
 21
40.8838
 31
0.0
  0
LINE
  8
0
 62
     0
 10
240.457
 20
40.8838
 30
0.0
 11
226.457
 21
40.8838
 31
0.0
  0
LINE
  8
0
 62
     0
 10
226.457
 20
40.8838
 30
0.0
 11
226.457
 21
54.8831
 31
0.0
  0
LINE
  8
0
 62
     0
 10
245.507
 20
54.8831
 30
0.0
 11
259.507
 21
54.8831
 31
0.0
  0
LINE
  8
0
 62
     0
 10
259.507
 20
54.8831
 30
0.0
 11
259.507
 21
40.8838
 31
0.0
  0
LINE
  8
0
 62
     0
 10
259.507
 20
40.8838
 30
0.0
 11
245.507
 21
40.8838
 31
0.0
  0
LINE
  8
0
 62
     0
 10
245.507
 20
40.8838
 30
0.0
 11
245.507
 21
54.8831
 31
0.0
  0
LINE
  8
0
 62
     0
 10
273.437
 20
73.5087
 30
0.0
 11
273.437
 21
72.6832
 31
0.0
  0
LINE
  8
0
 62
     0
 10
273.437
 20
72.6832
 30
0.0
 11
267.167
 21
72.6832
 31
0.0
  0
LINE
  8
0
 62
     0
 10
267.167
 20
72.6832
 30
0.0
 11
267.167
 21
70.9581
 31
0.0
  0
LINE
  8
0
 62
     0
 10
267.167
 20
70.9581
 30
0.0
 11
266.187
 21
70.9581
 31
0.0
  0
LINE
  8
0
 62
     0
 10
266.187
 20
70.9581
 30
0.0
 11
266.187
 21
67.6589
 31
0.0
  0
LINE
  8
0
 62
     0
 10
266.187
 20
67.6589
 30
0.0
 11
267.167
 21
67.6589
 31
0.0
  0
LINE
  8
0
 62
     0
 10
267.167
 20
67.6589
 30
0.0
 11
267.167
 21
65.9335
 31
0.0
  0
LINE
  8
0
 62
     0
 10
267.167
 20
65.9335
 30
0.0
 11
271.637
 21
65.9335
 31
0.0
  0
LINE
  8
0
 62
     0
 10
271.637
 20
65.9335
 30
0.0
 11
271.637
 21
64.4081
 31
0.0
  0
LINE
  8
0
 62
     0
 10
271.637
 20
64.4081
 30
0.0
 11
266.937
 21
64.4081
 31
0.0
  0
LINE
  8
0
 62
     0
 10
266.937
 20
64.4081
 30
0.0
 11
266.937
 21
50.4088
 31
0.0
  0
LINE
  8
0
 62
     0
 10
266.937
 20
50.4088
 30
0.0
 11
271.637
 21
50.4088
 31
0.0
  0
LINE
  8
0
 62
     0
 10
271.637
 20
50.4088
 30
0.0
 11
271.637
 21
48.883
 31
0.0
  0
LINE
  8
0
 62
     0
 10
271.637
 20
48.883
 30
0.0
 11
267.167
 21
48.883
 31
0.0
  0
LINE
  8
0
 62
     0
 10
267.167
 20
48.883
 30
0.0
 11
267.167
 21
47.1579
 31
0.0
  0
LINE
  8
0
 62
     0
 10
267.167
 20
47.1579
 30
0.0
 11
266.187
 21
47.1579
 31
0.0
  0
LINE
  8
0
 62
     0
 10
266.187
 20
47.1579
 30
0.0
 11
266.187
 21
43.8587
 31
0.0
  0
LINE
  8
0
 62
     0
 10
266.187
 20
43.8587
 30
0.0
 11
267.167
 21
43.8587
 31
0.0
  0
LINE
  8
0
 62
     0
 10
267.167
 20
43.8587
 30
0.0
 11
267.167
 21
42.1337
 31
0.0
  0
LINE
  8
0
 62
     0
 10
267.167
 20
42.1337
 30
0.0
 11
273.437
 21
42.1337
 31
0.0
  0
LINE
  8
0
 62
     0
 10
273.437
 20
42.1337
 30
0.0
 11
273.437
 21
41.3082
 31
0.0
  0
LINE
  8
0
 62
     0
 10
273.437
 20
41.3082
 30
0.0
 11
276.237
 21
41.3082
 31
0.0
  0
LINE
  8
0
 62
     0
 10
276.237
 20
41.3082
 30
0.0
 11
276.237
 21
42.1337
 31
0.0
  0
LINE
  8
0
 62
     0
 10
276.237
 20
42.1337
 30
0.0
 11
279.467
 21
42.1337
 31
0.0
  0
LINE
  8
0
 62
     0
 10
279.467
 20
42.1337
 30
0.0
 11
279.467
 21
43.8587
 31
0.0
  0
LINE
  8
0
 62
     0
 10
279.467
 20
43.8587
 30
0.0
 11
280.388
 21
43.8587
 31
0.0
  0
LINE
  8
0
 62
     0
 10
280.388
 20
43.8587
 30
0.0
 11
280.388
 21
47.1579
 31
0.0
  0
LINE
  8
0
 62
     0
 10
280.388
 20
47.1579
 30
0.0
 11
279.467
 21
47.1579
 31
0.0
  0
LINE
  8
0
 62
     0
 10
279.467
 20
47.1579
 30
0.0
 11
279.467
 21
48.883
 31
0.0
  0
LINE
  8
0
 62
     0
 10
279.467
 20
48.883
 30
0.0
 11
276.237
 21
48.883
 31
0.0
  0
LINE
  8
0
 62
     0
 10
276.237
 20
48.883
 30
0.0
 11
276.237
 21
50.4088
 31
0.0
  0
LINE
  8
0
 62
     0
 10
276.237
 20
50.4088
 30
0.0
 11
280.938
 21
50.4088
 31
0.0
  0
LINE
  8
0
 62
     0
 10
280.938
 20
50.4088
 30
0.0
 11
280.938
 21
64.4081
 31
0.0
  0
LINE
  8
0
 62
     0
 10
280.938
 20
64.4081
 30
0.0
 11
276.237
 21
64.4081
 31
0.0
  0
LINE
  8
0
 62
     0
 10
276.237
 20
64.4081
 30
0.0
 11
276.237
 21
65.9335
 31
0.0
  0
LINE
  8
0
 62
     0
 10
276.237
 20
65.9335
 30
0.0
 11
279.467
 21
65.9335
 31
0.0
  0
LINE
  8
0
 62
     0
 10
279.467
 20
65.9335
 30
0.0
 11
279.467
 21
67.6589
 31
0.0
  0
LINE
  8
0
 62
     0
 10
279.467
 20
67.6589
 30
0.0
 11
280.388
 21
67.6589
 31
0.0
  0
LINE
  8
0
 62
     0
 10
280.388
 20
67.6589
 30
0.0
 11
280.388
 21
70.9581
 31
0.0
  0
LINE
  8
0
 62
     0
 10
280.388
 20
70.9581
 30
0.0
 11
279.467
 21
70.9581
 31
0.0
  0
LINE
  8
0
 62
     0
 10
279.467
 20
70.9581
 30
0.0
 11
279.467
 21
72.6832
 31
0.0
  0
LINE
  8
0
 62
     0
 10
279.467
 20
72.6832
 30
0.0
 11
276.237
 21
72.6832
 31
0.0
  0
LINE
  8
0
 62
     0
 10
276.237
 20
72.6832
 30
0.0
 11
276.237
 21
73.5087
 31
0.0
  0
LINE
  8
0
 62
     0
 10
276.237
 20
73.5087
 30
0.0
 11
273.437
 21
73.5087
 31
0.0
  0
LINE
  8
0
 62
     0
 10
7.38216
 20
73.9331
 30
0.0
 11
21.3817
 21
73.9331
 31
0.0
  0
LINE
  8
0
 62
     0
 10
21.3817
 20
73.9331
 30
0.0
 11
21.3817
 21
59.9338
 31
0.0
  0
LINE
  8
0
 62
     0
 10
21.3817
 20
59.9338
 30
0.0
 11
7.38216
 21
59.9338
 31
0.0
  0
LINE
  8
0
 62
     0
 10
7.38216
 20
59.9338
 30
0.0
 11
7.38216
 21
73.9331
 31
0.0
  0
LINE
  8
0
 62
     0
 10
31.1947
 20
73.9331
 30
0.0
 11
45.194
 21
73.9331
 31
0.0
  0
LINE
  8
0
 62
     0
 10
45.194
 20
73.9331
 30
0.0
 11
45.194
 21
59.9338
 31
0.0
  0
LINE
  8
0
 62
     0
 10
45.194
 20
59.9338
 30
0.0
 11
31.1947
 21
59.9338
 31
0.0
  0
LINE
  8
0
 62
     0
 10
31.1947
 20
59.9338
 30
0.0
 11
31.1947
 21
73.9331
 31
0.0
  0
LINE
  8
0
 62
     0
 10
50.2447
 20
73.9331
 30
0.0
 11
64.244
 21
73.9331
 31
0.0
  0
LINE
  8
0
 62
     0
 10
64.244
 20
73.9331
 30
0.0
 11
64.244
 21
59.9338
 31
0.0
  0
LINE
  8
0
 62
     0
 10
64.244
 20
59.9338
 30
0.0
 11
50.2447
 21
59.9338
 31
0.0
  0
LINE
  8
0
 62
     0
 10
50.2447
 20
59.9338
 30
0.0
 11
50.2447
 21
73.9331
 31
0.0
  0
LINE
  8
0
 62
     0
 10
69.2947
 20
73.9331
 30
0.0
 11
83.294
 21
73.9331
 31
0.0
  0
LINE
  8
0
 62
     0
 10
83.294
 20
73.9331
 30
0.0
 11
83.294
 21
59.9338
 31
0.0
  0
LINE
  8
0
 62
     0
 10
83.294
 20
59.9338
 30
0.0
 11
69.2947
 21
59.9338
 31
0.0
  0
LINE
  8
0
 62
     0
 10
69.2947
 20
59.9338
 30
0.0
 11
69.2947
 21
73.9331
 31
0.0
  0
LINE
  8
0
 62
     0
 10
88.3447
 20
73.9331
 30
0.0
 11
102.344
 21
73.9331
 31
0.0
  0
LINE
  8
0
 62
     0
 10
102.344
 20
73.9331
 30
0.0
 11
102.344
 21
59.9338
 31
0.0
  0
LINE
  8
0
 62
     0
 10
102.344
 20
59.9338
 30
0.0
 11
88.3447
 21
59.9338
 31
0.0
  0
LINE
  8
0
 62
     0
 10
88.3447
 20
59.9338
 30
0.0
 11
88.3447
 21
73.9331
 31
0.0
  0
LINE
  8
0
 62
     0
 10
107.395
 20
73.9331
 30
0.0
 11
121.394
 21
73.9331
 31
0.0
  0
LINE
  8
0
 62
     0
 10
121.394
 20
73.9331
 30
0.0
 11
121.394
 21
59.9338
 31
0.0
  0
LINE
  8
0
 62
     0
 10
121.394
 20
59.9338
 30
0.0
 11
107.395
 21
59.9338
 31
0.0
  0
LINE
  8
0
 62
     0
 10
107.395
 20
59.9338
 30
0.0
 11
107.395
 21
73.9331
 31
0.0
  0
LINE
  8
0
 62
     0
 10
126.445
 20
73.9331
 30
0.0
 11
140.444
 21
73.9331
 31
0.0
  0
LINE
  8
0
 62
     0
 10
140.444
 20
73.9331
 30
0.0
 11
140.444
 21
59.9338
 31
0.0
  0
LINE
  8
0
 62
     0
 10
140.444
 20
59.9338
 30
0.0
 11
126.445
 21
59.9338
 31
0.0
  0
LINE
  8
0
 62
     0
 10
126.445
 20
59.9338
 30
0.0
 11
126.445
 21
73.9331
 31
0.0
  0
LINE
  8
0
 62
     0
 10
145.495
 20
73.9331
 30
0.0
 11
159.494
 21
73.9331
 31
0.0
  0
LINE
  8
0
 62
     0
 10
159.494
 20
73.9331
 30
0.0
 11
159.494
 21
59.9338
 31
0.0
  0
LINE
  8
0
 62
     0
 10
159.494
 20
59.9338
 30
0.0
 11
145.495
 21
59.9338
 31
0.0
  0
LINE
  8
0
 62
     0
 10
145.495
 20
59.9338
 30
0.0
 11
145.495
 21
73.9331
 31
0.0
  0
LINE
  8
0
 62
     0
 10
164.545
 20
73.9331
 30
0.0
 11
178.544
 21
73.9331
 31
0.0
  0
LINE
  8
0
 62
     0
 10
178.544
 20
73.9331
 30
0.0
 11
178.544
 21
59.9338
 31
0.0
  0
LINE
  8
0
 62
     0
 10
178.544
 20
59.9338
 30
0.0
 11
164.545
 21
59.9338
 31
0.0
  0
LINE
  8
0
 62
     0
 10
164.545
 20
59.9338
 30
0.0
 11
164.545
 21
73.9331
 31
0.0
  0
LINE
  8
0
 62
     0
 10
183.595
 20
73.9331
 30
0.0
 11
197.594
 21
73.9331
 31
0.0
  0
LINE
  8
0
 62
     0
 10
197.594
 20
73.9331
 30
0.0
 11
197.594
 21
59.9338
 31
0.0
  0
LINE
  8
0
 62
     0
 10
197.594
 20
59.9338
 30
0.0
 11
183.595
 21
59.9338
 31
0.0
  0
LINE
  8
0
 62
     0
 10
183.595
 20
59.9338
 30
0.0
 11
183.595
 21
73.9331
 31
0.0
  0
LINE
  8
0
 62
     0
 10
202.645
 20
73.9331
 30
0.0
 11
216.644
 21
73.9331
 31
0.0
  0
LINE
  8
0
 62
     0
 10
216.644
 20
73.9331
 30
0.0
 11
216.644
 21
59.9338
 31
0.0
  0
LINE
  8
0
 62
     0
 10
216.644
 20
59.9338
 30
0.0
 11
202.645
 21
59.9338
 31
0.0
  0
LINE
  8
0
 62
     0
 10
202.645
 20
59.9338
 30
0.0
 11
202.645
 21
73.9331
 31
0.0
  0
LINE
  8
0
 62
     0
 10
221.695
 20
73.9331
 30
0.0
 11
235.694
 21
73.9331
 31
0.0
  0
LINE
  8
0
 62
     0
 10
235.694
 20
73.9331
 30
0.0
 11
235.694
 21
59.9338
 31
0.0
  0
LINE
  8
0
 62
     0
 10
235.694
 20
59.9338
 30
0.0
 11
221.695
 21
59.9338
 31
0.0
  0
LINE
  8
0
 62
     0
 10
221.695
 20
59.9338
 30
0.0
 11
221.695
 21
73.9331
 31
0.0
  0
LINE
  8
0
 62
     0
 10
240.745
 20
73.9331
 30
0.0
 11
254.744
 21
73.9331
 31
0.0
  0
LINE
  8
0
 62
     0
 10
254.744
 20
73.9331
 30
0.0
 11
254.744
 21
59.9338
 31
0.0
  0
LINE
  8
0
 62
     0
 10
254.744
 20
59.9338
 30
0.0
 11
240.745
 21
59.9338
 31
0.0
  0
LINE
  8
0
 62
     0
 10
240.745
 20
59.9338
 30
0.0
 11
240.745
 21
73.9331
 31
0.0
  0
LINE
  8
0
 62
     0
 10
297.895
 20
73.9331
 30
0.0
 11
311.894
 21
73.9331
 31
0.0
  0
LINE
  8
0
 62
     0
 10
311.894
 20
73.9331
 30
0.0
 11
311.894
 21
59.9338
 31
0.0
  0
LINE
  8
0
 62
     0
 10
311.894
 20
59.9338
 30
0.0
 11
297.895
 21
59.9338
 31
0.0
  0
LINE
  8
0
 62
     0
 10
297.895
 20
59.9338
 30
0.0
 11
297.895
 21
73.9331
 31
0.0
  0
LINE
  8
0
 62
     0
 10
316.945
 20
73.9331
 30
0.0
 11
330.944
 21
73.9331
 31
0.0
  0
LINE
  8
0
 62
     0
 10
330.944
 20
73.9331
 30
0.0
 11
330.944
 21
59.9338
 31
0.0
  0
LINE
  8
0
 62
     0
 10
330.944
 20
59.9338
 30
0.0
 11
316.945
 21
59.9338
 31
0.0
  0
LINE
  8
0
 62
     0
 10
316.945
 20
59.9338
 30
0.0
 11
316.945
 21
73.9331
 31
0.0
  0
LINE
  8
0
 62
     0
 10
335.995
 20
73.9331
 30
0.0
 11
349.994
 21
73.9331
 31
0.0
  0
LINE
  8
0
 62
     0
 10
349.994
 20
73.9331
 30
0.0
 11
349.994
 21
59.9338
 31
0.0
  0
LINE
  8
0
 62
     0
 10
349.994
 20
59.9338
 30
0.0
 11
335.995
 21
59.9338
 31
0.0
  0
LINE
  8
0
 62
     0
 10
335.995
 20
59.9338
 30
0.0
 11
335.995
 21
73.9331
 31
0.0
  0
LINE
  8
0
 62
     0
 10
2.61965
 20
92.9831
 30
0.0
 11
16.6192
 21
92.9831
 31
0.0
  0
LINE
  8
0
 62
     0
 10
16.6192
 20
92.9831
 30
0.0
 11
16.6192
 21
78.9838
 31
0.0
  0
LINE
  8
0
 62
     0
 10
16.6192
 20
78.9838
 30
0.0
 11
2.61965
 21
78.9838
 31
0.0
  0
LINE
  8
0
 62
     0
 10
2.61965
 20
78.9838
 30
0.0
 11
2.61965
 21
92.9831
 31
0.0
  0
LINE
  8
0
 62
     0
 10
21.6697
 20
92.9831
 30
0.0
 11
35.669
 21
92.9831
 31
0.0
  0
LINE
  8
0
 62
     0
 10
35.669
 20
92.9831
 30
0.0
 11
35.669
 21
78.9838
 31
0.0
  0
LINE
  8
0
 62
     0
 10
35.669
 20
78.9838
 30
0.0
 11
21.6697
 21
78.9838
 31
0.0
  0
LINE
  8
0
 62
     0
 10
21.6697
 20
78.9838
 30
0.0
 11
21.6697
 21
92.9831
 31
0.0
  0
LINE
  8
0
 62
     0
 10
40.7197
 20
92.9831
 30
0.0
 11
54.719
 21
92.9831
 31
0.0
  0
LINE
  8
0
 62
     0
 10
54.719
 20
92.9831
 30
0.0
 11
54.719
 21
78.9838
 31
0.0
  0
LINE
  8
0
 62
     0
 10
54.719
 20
78.9838
 30
0.0
 11
40.7197
 21
78.9838
 31
0.0
  0
LINE
  8
0
 62
     0
 10
40.7197
 20
78.9838
 30
0.0
 11
40.7197
 21
92.9831
 31
0.0
  0
LINE
  8
0
 62
     0
 10
59.7697
 20
92.9831
 30
0.0
 11
73.769
 21
92.9831
 31
0.0
  0
LINE
  8
0
 62
     0
 10
73.769
 20
92.9831
 30
0.0
 11
73.769
 21
78.9838
 31
0.0
  0
LINE
  8
0
 62
     0
 10
73.769
 20
78.9838
 30
0.0
 11
59.7697
 21
78.9838
 31
0.0
  0
LINE
  8
0
 62
     0
 10
59.7697
 20
78.9838
 30
0.0
 11
59.7697
 21
92.9831
 31
0.0
  0
LINE
  8
0
 62
     0
 10
78.8197
 20
92.9831
 30
0.0
 11
92.819
 21
92.9831
 31
0.0
  0
LINE
  8
0
 62
     0
 10
92.819
 20
92.9831
 30
0.0
 11
92.819
 21
78.9838
 31
0.0
  0
LINE
  8
0
 62
     0
 10
92.819
 20
78.9838
 30
0.0
 11
78.8197
 21
78.9838
 31
0.0
  0
LINE
  8
0
 62
     0
 10
78.8197
 20
78.9838
 30
0.0
 11
78.8197
 21
92.9831
 31
0.0
  0
LINE
  8
0
 62
     0
 10
97.8683
 20
92.9831
 30
0.0
 11
111.869
 21
92.9831
 31
0.0
  0
LINE
  8
0
 62
     0
 10
111.869
 20
92.9831
 30
0.0
 11
111.869
 21
78.9838
 31
0.0
  0
LINE
  8
0
 62
     0
 10
111.869
 20
78.9838
 30
0.0
 11
97.8683
 21
78.9838
 31
0.0
  0
LINE
  8
0
 62
     0
 10
97.8683
 20
78.9838
 30
0.0
 11
97.8683
 21
92.9831
 31
0.0
  0
LINE
  8
0
 62
     0
 10
116.918
 20
92.9831
 30
0.0
 11
130.919
 21
92.9831
 31
0.0
  0
LINE
  8
0
 62
     0
 10
130.919
 20
92.9831
 30
0.0
 11
130.919
 21
78.9838
 31
0.0
  0
LINE
  8
0
 62
     0
 10
130.919
 20
78.9838
 30
0.0
 11
116.918
 21
78.9838
 31
0.0
  0
LINE
  8
0
 62
     0
 10
116.918
 20
78.9838
 30
0.0
 11
116.918
 21
92.9831
 31
0.0
  0
LINE
  8
0
 62
     0
 10
135.97
 20
92.9831
 30
0.0
 11
149.969
 21
92.9831
 31
0.0
  0
LINE
  8
0
 62
     0
 10
149.969
 20
92.9831
 30
0.0
 11
149.969
 21
78.9838
 31
0.0
  0
LINE
  8
0
 62
     0
 10
149.969
 20
78.9838
 30
0.0
 11
135.97
 21
78.9838
 31
0.0
  0
LINE
  8
0
 62
     0
 10
135.97
 20
78.9838
 30
0.0
 11
135.97
 21
92.9831
 31
0.0
  0
LINE
  8
0
 62
     0
 10
155.02
 20
92.9831
 30
0.0
 11
169.019
 21
92.9831
 31
0.0
  0
LINE
  8
0
 62
     0
 10
169.019
 20
92.9831
 30
0.0
 11
169.019
 21
78.9838
 31
0.0
  0
LINE
  8
0
 62
     0
 10
169.019
 20
78.9838
 30
0.0
 11
155.02
 21
78.9838
 31
0.0
  0
LINE
  8
0
 62
     0
 10
155.02
 20
78.9838
 30
0.0
 11
155.02
 21
92.9831
 31
0.0
  0
LINE
  8
0
 62
     0
 10
174.07
 20
92.9831
 30
0.0
 11
188.069
 21
92.9831
 31
0.0
  0
LINE
  8
0
 62
     0
 10
188.069
 20
92.9831
 30
0.0
 11
188.069
 21
78.9838
 31
0.0
  0
LINE
  8
0
 62
     0
 10
188.069
 20
78.9838
 30
0.0
 11
174.07
 21
78.9838
 31
0.0
  0
LINE
  8
0
 62
     0
 10
174.07
 20
78.9838
 30
0.0
 11
174.07
 21
92.9831
 31
0.0
  0
LINE
  8
0
 62
     0
 10
193.12
 20
92.9831
 30
0.0
 11
207.119
 21
92.9831
 31
0.0
  0
LINE
  8
0
 62
     0
 10
207.119
 20
92.9831
 30
0.0
 11
207.119
 21
78.9838
 31
0.0
  0
LINE
  8
0
 62
     0
 10
207.119
 20
78.9838
 30
0.0
 11
193.12
 21
78.9838
 31
0.0
  0
LINE
  8
0
 62
     0
 10
193.12
 20
78.9838
 30
0.0
 11
193.12
 21
92.9831
 31
0.0
  0
LINE
  8
0
 62
     0
 10
212.17
 20
92.9831
 30
0.0
 11
226.169
 21
92.9831
 31
0.0
  0
LINE
  8
0
 62
     0
 10
226.169
 20
92.9831
 30
0.0
 11
226.169
 21
78.9838
 31
0.0
  0
LINE
  8
0
 62
     0
 10
226.169
 20
78.9838
 30
0.0
 11
212.17
 21
78.9838
 31
0.0
  0
LINE
  8
0
 62
     0
 10
212.17
 20
78.9838
 30
0.0
 11
212.17
 21
92.9831
 31
0.0
  0
LINE
  8
0
 62
     0
 10
231.22
 20
92.9831
 30
0.0
 11
245.219
 21
92.9831
 31
0.0
  0
LINE
  8
0
 62
     0
 10
245.219
 20
92.9831
 30
0.0
 11
245.219
 21
78.9838
 31
0.0
  0
LINE
  8
0
 62
     0
 10
245.219
 20
78.9838
 30
0.0
 11
231.22
 21
78.9838
 31
0.0
  0
LINE
  8
0
 62
     0
 10
231.22
 20
78.9838
 30
0.0
 11
231.22
 21
92.9831
 31
0.0
  0
LINE
  8
0
 62
     0
 10
250.27
 20
92.9831
 30
0.0
 11
264.269
 21
92.9831
 31
0.0
  0
LINE
  8
0
 62
     0
 10
264.269
 20
92.9831
 30
0.0
 11
264.269
 21
78.9838
 31
0.0
  0
LINE
  8
0
 62
     0
 10
264.269
 20
78.9838
 30
0.0
 11
250.27
 21
78.9838
 31
0.0
  0
LINE
  8
0
 62
     0
 10
250.27
 20
78.9838
 30
0.0
 11
250.27
 21
92.9831
 31
0.0
  0
LINE
  8
0
 62
     0
 10
269.32
 20
92.9831
 30
0.0
 11
283.319
 21
92.9831
 31
0.0
  0
LINE
  8
0
 62
     0
 10
283.319
 20
92.9831
 30
0.0
 11
283.319
 21
78.9838
 31
0.0
  0
LINE
  8
0
 62
     0
 10
283.319
 20
78.9838
 30
0.0
 11
269.32
 21
78.9838
 31
0.0
  0
LINE
  8
0
 62
     0
 10
269.32
 20
78.9838
 30
0.0
 11
269.32
 21
92.9831
 31
0.0
  0
LINE
  8
0
 62
     0
 10
297.895
 20
92.9831
 30
0.0
 11
311.894
 21
92.9831
 31
0.0
  0
LINE
  8
0
 62
     0
 10
311.894
 20
92.9831
 30
0.0
 11
311.894
 21
78.9838
 31
0.0
  0
LINE
  8
0
 62
     0
 10
311.894
 20
78.9838
 30
0.0
 11
297.895
 21
78.9838
 31
0.0
  0
LINE
  8
0
 62
     0
 10
297.895
 20
78.9838
 30
0.0
 11
297.895
 21
92.9831
 31
0.0
  0
LINE
  8
0
 62
     0
 10
316.945
 20
92.9831
 30
0.0
 11
330.944
 21
92.9831
 31
0.0
  0
LINE
  8
0
 62
     0
 10
330.944
 20
92.9831
 30
0.0
 11
330.944
 21
78.9838
 31
0.0
  0
LINE
  8
0
 62
     0
 10
330.944
 20
78.9838
 30
0.0
 11
316.945
 21
78.9838
 31
0.0
  0
LINE
  8
0
 62
     0
 10
316.945
 20
78.9838
 30
0.0
 11
316.945
 21
92.9831
 31
0.0
  0
LINE
  8
0
 62
     0
 10
335.995
 20
92.9831
 30
0.0
 11
349.994
 21
92.9831
 31
0.0
  0
LINE
  8
0
 62
     0
 10
349.994
 20
92.9831
 30
0.0
 11
349.994
 21
78.9838
 31
0.0
  0
LINE
  8
0
 62
     0
 10
349.994
 20
78.9838
 30
0.0
 11
335.995
 21
78.9838
 31
0.0
  0
LINE
  8
0
 62
     0
 10
335.995
 20
78.9838
 30
0.0
 11
335.995
 21
92.9831
 31
0.0
  0
LINE
  8
0
 62
     0
 10
2.61965
 20
121.558
 30
0.0
 11
16.6192
 21
121.558
 31
0.0
  0
LINE
  8
0
 62
     0
 10
16.6192
 20
121.558
 30
0.0
 11
16.6192
 21
107.559
 31
0.0
  0
LINE
  8
0
 62
     0
 10
16.6192
 20
107.559
 30
0.0
 11
2.61965
 21
107.559
 31
0.0
  0
LINE
  8
0
 62
     0
 10
2.61965
 20
107.559
 30
0.0
 11
2.61965
 21
121.558
 31
0.0
  0
LINE
  8
0
 62
     0
 10
40.7197
 20
121.558
 30
0.0
 11
54.719
 21
121.558
 31
0.0
  0
LINE
  8
0
 62
     0
 10
54.719
 20
121.558
 30
0.0
 11
54.719
 21
107.559
 31
0.0
  0
LINE
  8
0
 62
     0
 10
54.719
 20
107.559
 30
0.0
 11
40.7197
 21
107.559
 31
0.0
  0
LINE
  8
0
 62
     0
 10
40.7197
 20
107.559
 30
0.0
 11
40.7197
 21
121.558
 31
0.0
  0
LINE
  8
0
 62
     0
 10
59.7697
 20
121.558
 30
0.0
 11
73.769
 21
121.558
 31
0.0
  0
LINE
  8
0
 62
     0
 10
73.769
 20
121.558
 30
0.0
 11
73.769
 21
107.559
 31
0.0
  0
LINE
  8
0
 62
     0
 10
73.769
 20
107.559
 30
0.0
 11
59.7697
 21
107.559
 31
0.0
  0
LINE
  8
0
 62
     0
 10
59.7697
 20
107.559
 30
0.0
 11
59.7697
 21
121.558
 31
0.0
  0
LINE
  8
0
 62
     0
 10
78.8197
 20
121.558
 30
0.0
 11
92.819
 21
121.558
 31
0.0
  0
LINE
  8
0
 62
     0
 10
92.819
 20
121.558
 30
0.0
 11
92.819
 21
107.559
 31
0.0
  0
LINE
  8
0
 62
     0
 10
92.819
 20
107.559
 30
0.0
 11
78.8197
 21
107.559
 31
0.0
  0
LINE
  8
0
 62
     0
 10
78.8197
 20
107.559
 30
0.0
 11
78.8197
 21
121.558
 31
0.0
  0
LINE
  8
0
 62
     0
 10
97.8683
 20
121.558
 30
0.0
 11
111.869
 21
121.558
 31
0.0
  0
LINE
  8
0
 62
     0
 10
111.869
 20
121.558
 30
0.0
 11
111.869
 21
107.559
 31
0.0
  0
LINE
  8
0
 62
     0
 10
111.869
 20
107.559
 30
0.0
 11
97.8683
 21
107.559
 31
0.0
  0
LINE
  8
0
 62
     0
 10
97.8683
 20
107.559
 30
0.0
 11
97.8683
 21
121.558
 31
0.0
  0
LINE
  8
0
 62
     0
 10
126.445
 20
121.558
 30
0.0
 11
140.444
 21
121.558
 31
0.0
  0
LINE
  8
0
 62
     0
 10
140.444
 20
121.558
 30
0.0
 11
140.444
 21
107.559
 31
0.0
  0
LINE
  8
0
 62
     0
 10
140.444
 20
107.559
 30
0.0
 11
126.445
 21
107.559
 31
0.0
  0
LINE
  8
0
 62
     0
 10
126.445
 20
107.559
 30
0.0
 11
126.445
 21
121.558
 31
0.0
  0
LINE
  8
0
 62
     0
 10
145.495
 20
121.558
 30
0.0
 11
159.494
 21
121.558
 31
0.0
  0
LINE
  8
0
 62
     0
 10
159.494
 20
121.558
 30
0.0
 11
159.494
 21
107.559
 31
0.0
  0
LINE
  8
0
 62
     0
 10
159.494
 20
107.559
 30
0.0
 11
145.495
 21
107.559
 31
0.0
  0
LINE
  8
0
 62
     0
 10
145.495
 20
107.559
 30
0.0
 11
145.495
 21
121.558
 31
0.0
  0
LINE
  8
0
 62
     0
 10
164.545
 20
121.558
 30
0.0
 11
178.544
 21
121.558
 31
0.0
  0
LINE
  8
0
 62
     0
 10
178.544
 20
121.558
 30
0.0
 11
178.544
 21
107.559
 31
0.0
  0
LINE
  8
0
 62
     0
 10
178.544
 20
107.559
 30
0.0
 11
164.545
 21
107.559
 31
0.0
  0
LINE
  8
0
 62
     0
 10
164.545
 20
107.559
 30
0.0
 11
164.545
 21
121.558
 31
0.0
  0
LINE
  8
0
 62
     0
 10
183.595
 20
121.558
 30
0.0
 11
197.594
 21
121.558
 31
0.0
  0
LINE
  8
0
 62
     0
 10
197.594
 20
121.558
 30
0.0
 11
197.594
 21
107.559
 31
0.0
  0
LINE
  8
0
 62
     0
 10
197.594
 20
107.559
 30
0.0
 11
183.595
 21
107.559
 31
0.0
  0
LINE
  8
0
 62
     0
 10
183.595
 20
107.559
 30
0.0
 11
183.595
 21
121.558
 31
0.0
  0
LINE
  8
0
 62
     0
 10
212.17
 20
121.558
 30
0.0
 11
226.169
 21
121.558
 31
0.0
  0
LINE
  8
0
 62
     0
 10
226.169
 20
121.558
 30
0.0
 11
226.169
 21
107.559
 31
0.0
  0
LINE
  8
0
 62
     0
 10
226.169
 20
107.559
 30
0.0
 11
212.17
 21
107.559
 31
0.0
  0
LINE
  8
0
 62
     0
 10
212.17
 20
107.559
 30
0.0
 11
212.17
 21
121.558
 31
0.0
  0
LINE
  8
0
 62
     0
 10
231.22
 20
121.558
 30
0.0
 11
245.219
 21
121.558
 31
0.0
  0
LINE
  8
0
 62
     0
 10
245.219
 20
121.558
 30
0.0
 11
245.219
 21
107.559
 31
0.0
  0
LINE
  8
0
 62
     0
 10
245.219
 20
107.559
 30
0.0
 11
231.22
 21
107.559
 31
0.0
  0
LINE
  8
0
 62
     0
 10
231.22
 20
107.559
 30
0.0
 11
231.22
 21
121.558
 31
0.0
  0
LINE
  8
0
 62
     0
 10
250.27
 20
121.558
 30
0.0
 11
264.269
 21
121.558
 31
0.0
  0
LINE
  8
0
 62
     0
 10
264.269
 20
121.558
 30
0.0
 11
264.269
 21
107.559
 31
0.0
  0
LINE
  8
0
 62
     0
 10
264.269
 20
107.559
 30
0.0
 11
250.27
 21
107.559
 31
0.0
  0
LINE
  8
0
 62
     0
 10
250.27
 20
107.559
 30
0.0
 11
250.27
 21
121.558
 31
0.0
  0
LINE
  8
0
 62
     0
 10
269.32
 20
121.558
 30
0.0
 11
283.319
 21
121.558
 31
0.0
  0
LINE
  8
0
 62
     0
 10
283.319
 20
121.558
 30
0.0
 11
283.319
 21
107.559
 31
0.0
  0
LINE
  8
0
 62
     0
 10
283.319
 20
107.559
 30
0.0
 11
269.32
 21
107.559
 31
0.0
  0
LINE
  8
0
 62
     0
 10
269.32
 20
107.559
 30
0.0
 11
269.32
 21
121.558
 31
0.0
  0
LINE
  8
0
 62
     0
 10
297.895
 20
121.558
 30
0.0
 11
311.894
 21
121.558
 31
0.0
  0
LINE
  8
0
 62
     0
 10
311.894
 20
121.558
 30
0.0
 11
311.894
 21
107.559
 31
0.0
  0
LINE
  8
0
 62
     0
 10
311.894
 20
107.559
 30
0.0
 11
297.895
 21
107.559
 31
0.0
  0
LINE
  8
0
 62
     0
 10
297.895
 20
107.559
 30
0.0
 11
297.895
 21
121.558
 31
0.0
  0
LINE
  8
0
 62
     0
 10
316.945
 20
121.558
 30
0.0
 11
330.944
 21
121.558
 31
0.0
  0
LINE
  8
0
 62
     0
 10
330.944
 20
121.558
 30
0.0
 11
330.944
 21
107.559
 31
0.0
  0
LINE
  8
0
 62
     0
 10
330.944
 20
107.559
 30
0.0
 11
316.945
 21
107.559
 31
0.0
  0
LINE
  8
0
 62
     0
 10
316.945
 20
107.559
 30
0.0
 11
316.945
 21
121.558
 31
0.0
  0
LINE
  8
0
 62
     0
 10
335.995
 20
121.558
 30
0.0
 11
349.994
 21
121.558
 31
0.0
  0
LINE
  8
0
 62
     0
 10
349.994
 20
121.558
 30
0.0
 11
349.994
 21
107.559
 31
0.0
  0
LINE
  8
0
 62
     0
 10
349.994
 20
107.559
 30
0.0
 11
335.995
 21
107.559
 31
0.0
  0
LINE
  8
0
 62
     0
 10
335.995
 20
107.559
 30
0.0
 11
335.995
 21
121.558
 31
0.0
  0
ENDSEC
  0
EOF
